# Blender v2.82 (sub 7) OBJ File: 'gun.blend'
# www.blender.org
mtllib gun.mtl
o Cube
v -0.096695 -0.233387 0.096695
v -0.096695 0.233387 0.096695
v -0.096695 -0.233387 -0.096695
v -0.096695 0.233387 -0.096695
v 0.096695 -0.233387 0.096695
v 0.096695 0.233387 0.096695
v 0.096695 -0.233387 -0.096695
v 0.096695 0.233387 -0.096695
v -0.096695 0.001222 0.096695
v 0.096695 0.001222 -0.096695
v -0.096695 0.001222 -0.096695
v 0.096695 0.001222 0.096695
v -0.066621 0.197283 0.288801
v 0.066621 0.197283 0.288801
v -0.066621 0.037326 0.288801
v 0.066621 0.037326 0.288801
vt 0.625000 0.500000
vt 0.625000 0.750000
vt 0.875000 0.750000
vt 0.875000 0.500000
vt 0.499346 0.750000
vt 0.499346 1.000000
vt 0.625000 1.000000
vt 0.499346 0.000000
vt 0.499346 0.250000
vt 0.625000 0.250000
vt 0.625000 0.000000
vt 0.125000 0.500000
vt 0.125000 0.750000
vt 0.375000 0.750000
vt 0.375000 0.500000
vt 0.499346 0.500000
vt 0.499346 0.500000
vt 0.375000 0.500000
vt 0.375000 0.000000
vt 0.375000 0.250000
vt 0.375000 1.000000
vt 0.375000 0.250000
vt 0.499346 0.250000
vt 0.125000 0.500000
vn 0.0000 -1.0000 0.0000
vn 0.0000 0.0000 -1.0000
vn 1.0000 0.0000 0.0000
vn 0.0000 1.0000 0.0000
vn -1.0000 0.0000 0.0000
vn 0.0000 0.0000 1.0000
vn -0.9880 0.0000 0.1547
vn 0.9880 0.0000 0.1547
vn 0.0000 -0.9828 0.1847
vn 0.0000 0.9828 0.1847
usemtl Material
s off
f 1/1/1 3/2/1 7/3/1 5/4/1
f 11/5/2 10/6/2 7/7/2 3/2/2
f 10/8/3 12/9/3 5/10/3 7/11/3
f 6/12/4 8/13/4 4/14/4 2/15/4
f 9/16/5 11/5/5 3/2/5 1/1/5
f 12/9/6 9/16/6 1/1/6 5/10/6
f 9/16/7 15/17/7 13/18/7 2/15/7
f 2/15/5 4/14/5 11/5/5 9/16/5
f 8/19/3 6/20/3 12/9/3 10/8/3
f 4/14/2 8/21/2 10/6/2 11/5/2
f 14/22/6 13/18/6 15/17/6 16/23/6
f 6/20/8 14/22/8 16/23/8 12/9/8
f 12/9/9 16/23/9 15/17/9 9/16/9
f 2/15/10 13/18/10 14/24/10 6/12/10
o Cube.001
v -0.066597 0.193265 0.503684
v -0.066597 0.199693 0.036981
v -0.066597 0.068628 0.501968
v -0.066597 0.075057 0.035264
v 0.066597 0.193265 0.503684
v 0.066597 0.199693 0.036981
v 0.066597 0.068628 0.501968
v 0.066597 0.075057 0.035264
vt 0.625000 0.500000
vt 0.625000 0.750000
vt 0.875000 0.750000
vt 0.875000 0.500000
vt 0.375000 0.750000
vt 0.375000 1.000000
vt 0.625000 1.000000
vt 0.375000 0.000000
vt 0.375000 0.250000
vt 0.625000 0.250000
vt 0.625000 0.000000
vt 0.125000 0.500000
vt 0.125000 0.750000
vt 0.375000 0.500000
vn 0.0000 -0.0138 0.9999
vn 0.0000 -0.9999 -0.0138
vn 1.0000 -0.0000 0.0000
vn 0.0000 0.0138 -0.9999
vn -1.0000 -0.0000 0.0000
vn 0.0000 0.9999 0.0138
usemtl Material
s off
f 17/25/11 19/26/11 23/27/11 21/28/11
f 20/29/12 24/30/12 23/31/12 19/26/12
f 24/32/13 22/33/13 21/34/13 23/35/13
f 22/36/14 24/37/14 20/29/14 18/38/14
f 18/38/15 20/29/15 19/26/15 17/25/15
f 22/33/16 18/38/16 17/25/16 21/34/16
o Cylinder
v 0.000083 0.098405 0.567689
v 0.000083 0.096643 0.488416
v -0.005650 0.098955 0.567677
v -0.005650 0.097193 0.488404
v -0.011162 0.100583 0.567641
v -0.011162 0.098821 0.488367
v -0.016242 0.103227 0.567582
v -0.016242 0.101465 0.488309
v -0.020695 0.106786 0.567503
v -0.020695 0.105024 0.488229
v -0.024350 0.111122 0.567406
v -0.024350 0.109360 0.488133
v -0.027065 0.116069 0.567296
v -0.027065 0.114306 0.488023
v -0.028737 0.121436 0.567177
v -0.028737 0.119674 0.487904
v -0.029302 0.127019 0.567053
v -0.029302 0.125256 0.487780
v -0.028737 0.132601 0.566929
v -0.028737 0.130839 0.487656
v -0.027065 0.137969 0.566809
v -0.027065 0.136206 0.487536
v -0.024350 0.142916 0.566700
v -0.024350 0.141153 0.487426
v -0.020695 0.147252 0.566603
v -0.020695 0.145489 0.487330
v -0.016242 0.150810 0.566524
v -0.016242 0.149048 0.487251
v -0.011162 0.153454 0.566465
v -0.011162 0.151692 0.487192
v -0.005650 0.155083 0.566429
v -0.005650 0.153320 0.487156
v 0.000083 0.155632 0.566417
v 0.000083 0.153870 0.487144
v 0.005815 0.155083 0.566429
v 0.005815 0.153320 0.487156
v 0.011328 0.153454 0.566465
v 0.011328 0.151692 0.487192
v 0.016408 0.150810 0.566524
v 0.016408 0.149048 0.487251
v 0.020861 0.147252 0.566603
v 0.020861 0.145489 0.487330
v 0.024515 0.142916 0.566700
v 0.024515 0.141153 0.487426
v 0.027231 0.137969 0.566809
v 0.027231 0.136206 0.487536
v 0.028903 0.132601 0.566929
v 0.028903 0.130839 0.487656
v 0.029467 0.127019 0.567053
v 0.029467 0.125256 0.487780
v 0.028903 0.121436 0.567177
v 0.028903 0.119674 0.487904
v 0.027231 0.116069 0.567296
v 0.027231 0.114306 0.488023
v 0.024515 0.111122 0.567406
v 0.024515 0.109360 0.488133
v 0.020861 0.106786 0.567503
v 0.020861 0.105023 0.488229
v 0.016408 0.103227 0.567582
v 0.016408 0.101465 0.488309
v 0.011328 0.100583 0.567641
v 0.011328 0.098821 0.488367
v 0.005815 0.098955 0.567677
v 0.005815 0.097193 0.488404
vt 1.000000 0.500000
vt 0.968750 0.500000
vt 0.968750 1.000000
vt 1.000000 1.000000
vt 0.937500 0.500000
vt 0.937500 1.000000
vt 0.906250 0.500000
vt 0.906250 1.000000
vt 0.875000 0.500000
vt 0.875000 1.000000
vt 0.843750 0.500000
vt 0.843750 1.000000
vt 0.812500 0.500000
vt 0.812500 1.000000
vt 0.781250 0.500000
vt 0.781250 1.000000
vt 0.750000 0.500000
vt 0.750000 1.000000
vt 0.718750 0.500000
vt 0.718750 1.000000
vt 0.687500 0.500000
vt 0.687500 1.000000
vt 0.656250 0.500000
vt 0.656250 1.000000
vt 0.625000 0.500000
vt 0.625000 1.000000
vt 0.593750 0.500000
vt 0.593750 1.000000
vt 0.562500 0.500000
vt 0.562500 1.000000
vt 0.531250 0.500000
vt 0.531250 1.000000
vt 0.500000 0.500000
vt 0.500000 1.000000
vt 0.468750 0.500000
vt 0.468750 1.000000
vt 0.437500 0.500000
vt 0.437500 1.000000
vt 0.406250 0.500000
vt 0.406250 1.000000
vt 0.375000 0.500000
vt 0.375000 1.000000
vt 0.343750 0.500000
vt 0.343750 1.000000
vt 0.312500 0.500000
vt 0.312500 1.000000
vt 0.281250 0.500000
vt 0.281250 1.000000
vt 0.250000 0.500000
vt 0.250000 1.000000
vt 0.218750 0.500000
vt 0.218750 1.000000
vt 0.187500 0.500000
vt 0.187500 1.000000
vt 0.156250 0.500000
vt 0.156250 1.000000
vt 0.125000 0.500000
vt 0.125000 1.000000
vt 0.093750 0.500000
vt 0.093750 1.000000
vt 0.062500 0.500000
vt 0.062500 1.000000
vt 0.296822 0.485388
vt 0.341844 0.471731
vt 0.383337 0.449553
vt 0.419706 0.419706
vt 0.449553 0.383337
vt 0.471731 0.341844
vt 0.485388 0.296822
vt 0.490000 0.250000
vt 0.485388 0.203178
vt 0.471731 0.158156
vt 0.449553 0.116663
vt 0.419706 0.080294
vt 0.383337 0.050447
vt 0.341844 0.028269
vt 0.296822 0.014612
vt 0.250000 0.010000
vt 0.203178 0.014612
vt 0.158156 0.028269
vt 0.116663 0.050447
vt 0.080294 0.080294
vt 0.050447 0.116663
vt 0.028269 0.158156
vt 0.014611 0.203179
vt 0.010000 0.250000
vt 0.014612 0.296822
vt 0.028269 0.341844
vt 0.050447 0.383337
vt 0.080295 0.419706
vt 0.116663 0.449553
vt 0.158156 0.471731
vt 0.203179 0.485389
vt 0.250000 0.490000
vt 0.031250 0.500000
vt 0.031250 1.000000
vt 0.000000 0.500000
vt 0.000000 1.000000
vt 0.750000 0.490000
vt 0.703179 0.485389
vt 0.658156 0.471731
vt 0.616663 0.449553
vt 0.580295 0.419706
vt 0.550447 0.383337
vt 0.528269 0.341844
vt 0.514612 0.296822
vt 0.510000 0.250000
vt 0.514611 0.203179
vt 0.528269 0.158156
vt 0.550447 0.116663
vt 0.580294 0.080294
vt 0.616663 0.050447
vt 0.658156 0.028269
vt 0.703178 0.014612
vt 0.750000 0.010000
vt 0.796822 0.014612
vt 0.841844 0.028269
vt 0.883337 0.050447
vt 0.919706 0.080294
vt 0.949553 0.116663
vt 0.971731 0.158156
vt 0.985388 0.203178
vt 0.990000 0.250000
vt 0.985388 0.296822
vt 0.971731 0.341844
vt 0.949553 0.383337
vt 0.919706 0.419706
vt 0.883337 0.449553
vt 0.841844 0.471731
vt 0.796822 0.485388
vn -0.0955 -0.9952 0.0221
vn -0.2834 -0.9588 0.0213
vn -0.4618 -0.8868 0.0197
vn -0.6244 -0.7809 0.0174
vn -0.7647 -0.6442 0.0143
vn -0.8767 -0.4810 0.0107
vn -0.9548 -0.2973 0.0066
vn -0.9949 -0.1006 0.0022
vn -0.9949 0.1006 -0.0022
vn -0.9548 0.2973 -0.0066
vn -0.8767 0.4810 -0.0107
vn -0.7647 0.6442 -0.0143
vn -0.6244 0.7809 -0.0174
vn -0.4618 0.8868 -0.0197
vn -0.2834 0.9588 -0.0213
vn -0.0955 0.9952 -0.0221
vn 0.0955 0.9952 -0.0221
vn 0.2834 0.9588 -0.0213
vn 0.4618 0.8868 -0.0197
vn 0.6244 0.7809 -0.0174
vn 0.7647 0.6442 -0.0143
vn 0.8767 0.4810 -0.0107
vn 0.9548 0.2973 -0.0066
vn 0.9949 0.1006 -0.0022
vn 0.9949 -0.1006 0.0022
vn 0.9548 -0.2973 0.0066
vn 0.8767 -0.4810 0.0107
vn 0.7647 -0.6442 0.0143
vn 0.6244 -0.7809 0.0174
vn 0.4618 -0.8868 0.0197
vn 0.0000 -0.0222 -0.9998
vn 0.2833 -0.9588 0.0213
vn 0.0955 -0.9952 0.0221
vn -0.0000 0.0222 0.9998
usemtl None
s off
f 25/39/17 27/40/17 28/41/17 26/42/17
f 27/40/18 29/43/18 30/44/18 28/41/18
f 29/43/19 31/45/19 32/46/19 30/44/19
f 31/45/20 33/47/20 34/48/20 32/46/20
f 33/47/21 35/49/21 36/50/21 34/48/21
f 35/49/22 37/51/22 38/52/22 36/50/22
f 37/51/23 39/53/23 40/54/23 38/52/23
f 39/53/24 41/55/24 42/56/24 40/54/24
f 41/55/25 43/57/25 44/58/25 42/56/25
f 43/57/26 45/59/26 46/60/26 44/58/26
f 45/59/27 47/61/27 48/62/27 46/60/27
f 47/61/28 49/63/28 50/64/28 48/62/28
f 49/63/29 51/65/29 52/66/29 50/64/29
f 51/65/30 53/67/30 54/68/30 52/66/30
f 53/67/31 55/69/31 56/70/31 54/68/31
f 55/69/32 57/71/32 58/72/32 56/70/32
f 57/71/33 59/73/33 60/74/33 58/72/33
f 59/73/34 61/75/34 62/76/34 60/74/34
f 61/75/35 63/77/35 64/78/35 62/76/35
f 63/77/36 65/79/36 66/80/36 64/78/36
f 65/79/37 67/81/37 68/82/37 66/80/37
f 67/81/38 69/83/38 70/84/38 68/82/38
f 69/83/39 71/85/39 72/86/39 70/84/39
f 71/85/40 73/87/40 74/88/40 72/86/40
f 73/87/41 75/89/41 76/90/41 74/88/41
f 75/89/42 77/91/42 78/92/42 76/90/42
f 77/91/43 79/93/43 80/94/43 78/92/43
f 79/93/44 81/95/44 82/96/44 80/94/44
f 81/95/45 83/97/45 84/98/45 82/96/45
f 83/97/46 85/99/46 86/100/46 84/98/46
f 28/101/47 30/102/47 32/103/47 34/104/47 36/105/47 38/106/47 40/107/47 42/108/47 44/109/47 46/110/47 48/111/47 50/112/47 52/113/47 54/114/47 56/115/47 58/116/47 60/117/47 62/118/47 64/119/47 66/120/47 68/121/47 70/122/47 72/123/47 74/124/47 76/125/47 78/126/47 80/127/47 82/128/47 84/129/47 86/130/47 88/131/47 26/132/47
f 85/99/48 87/133/48 88/134/48 86/100/48
f 87/133/49 25/135/49 26/136/49 88/134/49
f 25/137/50 87/138/50 85/139/50 83/140/50 81/141/50 79/142/50 77/143/50 75/144/50 73/145/50 71/146/50 69/147/50 67/148/50 65/149/50 63/150/50 61/151/50 59/152/50 57/153/50 55/154/50 53/155/50 51/156/50 49/157/50 47/158/50 45/159/50 43/160/50 41/161/50 39/162/50 37/163/50 35/164/50 33/165/50 31/166/50 29/167/50 27/168/50
o Cube.002
v -0.024252 0.038470 0.125413
v -0.024252 -0.058961 0.124423
v -0.024252 0.038260 0.146038
v -0.024252 -0.059171 0.145047
v 0.005210 0.038470 0.125413
v 0.005210 -0.058961 0.124423
v 0.005210 0.038260 0.146038
v 0.005210 -0.059171 0.145047
vt 0.625000 0.500000
vt 0.625000 0.750000
vt 0.875000 0.750000
vt 0.875000 0.500000
vt 0.375000 0.750000
vt 0.375000 1.000000
vt 0.625000 1.000000
vt 0.375000 0.000000
vt 0.375000 0.250000
vt 0.625000 0.250000
vt 0.625000 0.000000
vt 0.125000 0.500000
vt 0.125000 0.750000
vt 0.375000 0.500000
vn 0.0000 0.9999 0.0102
vn 0.0000 -0.0102 0.9999
vn 1.0000 0.0000 0.0000
vn 0.0000 -0.9999 -0.0102
vn -1.0000 0.0000 0.0000
vn 0.0000 0.0102 -0.9999
usemtl Material
s off
f 89/169/51 91/170/51 95/171/51 93/172/51
f 92/173/52 96/174/52 95/175/52 91/170/52
f 96/176/53 94/177/53 93/178/53 95/179/53
f 94/180/54 96/181/54 92/173/54 90/182/54
f 90/182/55 92/173/55 91/170/55 89/169/55
f 94/177/56 90/182/56 89/169/56 93/178/56
